<?xml version="1.0" encoding="UTF-8" standalone="no"?>
<!-- Created with Inkscape (http://www.inkscape.org/) -->

<svg
   version="1.1"
   id="svg2"
   width="683"
   height="683"
   viewBox="0 0 683 683"
   sodipodi:docname="kuri5.svg"
   inkscape:version="1.1 (1:1.1+202105261517+ce6663b3b7)"
   xmlns:inkscape="http://www.inkscape.org/namespaces/inkscape"
   xmlns:sodipodi="http://sodipodi.sourceforge.net/DTD/sodipodi-0.dtd"
   xmlns="http://www.w3.org/2000/svg"
   xmlns:svg="http://www.w3.org/2000/svg">
  <defs
     id="defs6" />
  <sodipodi:namedview
     id="namedview4"
     pagecolor="#ffffff"
     bordercolor="#666666"
     borderopacity="1.0"
     inkscape:pageshadow="2"
     inkscape:pageopacity="0.0"
     inkscape:pagecheckerboard="0"
     showgrid="false"
     inkscape:zoom="0.43689467"
     inkscape:cx="40.055421"
     inkscape:cy="13.733287"
     inkscape:window-width="1920"
     inkscape:window-height="1043"
     inkscape:window-x="1920"
     inkscape:window-y="0"
     inkscape:window-maximized="1"
     inkscape:current-layer="g8" />
  <g
     inkscape:groupmode="layer"
     inkscape:label="Image"
     id="g8">
    <path
       style="fill:none;stroke:#000000;stroke-width:1px;stroke-linecap:butt;stroke-linejoin:miter;stroke-opacity:1"
       d="m 525.60752,358.04981 c 1.41157,1.52798 -18.36857,1.07589 -19.01273,1.28433 -3.52634,1.14104 -2.18942,3.91275 -7.10892,3.91275 -10.15919,0 -15.46325,0.83385 -23.45457,5.37545 -6.70925,3.81298 -31.76749,-4.11005 -39.70501,-1.40432 -3.17176,1.08119 -4.7522,6.86043 -7.92606,7.92626 -0.45217,0.15185 -0.8858,-6.0073 -2.27125,-6.92419 -4.2192,-2.79227 -9.69048,-5.63205 -13.11027,-9.05161 -8.07992,-8.07941 -18.44332,-8.116 -14.66699,-3.00005 6.67429,8.31798 -10.32254,-7.1373 -10.83375,-11.36334 -0.95181,-8.31043 -3.00491,-11.90643 -13.09531,-23.25183 -1.375,-1.546 -3.3104,-3.8646 -4.3009,-5.1524 -1.2256,-1.5936 -1.9709,-1.9422 -2.3333,-1.0915 -0.2929,0.6875 -1.8345,1.25 -3.4258,1.25 -2.4084,0 -3.2324,-0.7019 -4.9167,-4.1878 -1.1128,-2.3033 -2.0233,-4.7397 -2.0233,-5.4142 0,-0.6745 -1.5224,-2.794 -3.3831,-4.71 -1.8607,-1.916 -4.1576,-4.7948 -5.1043,-6.3973 -1.3678,-2.3156 -2.2792,-2.8318 -4.4396,-2.5147 -6.3131,0.9265 -14.1673,-5.7527 -12.594,-10.7099 0.4416,-1.3912 -0.089,-2.0104 -2.1985,-2.5646 -2.5506,-0.6702 -2.6151,-0.7981 -0.7805,-1.5458 1.853,-0.7552 1.7304,-0.9331 -1,-1.4495 -4.9424,-0.9347 -6.4294,-1.9081 -7.0194,-4.5947 -0.555,-2.5269 -1.3689,-3.0981 -6.3089,-4.4278 -3.1194,-0.8396 -6.7837,-1.8607 -8.1428,-2.2691 -3.1083,-0.9339 -7.8842,-7.9507 -9.5661,-14.0547 -0.851,-3.0884 -1.3141,-3.8337 -1.3734,-2.2099 -0.069,1.8822 -0.3628,2.1766 -1.2692,1.2702 -1.4436,-1.4436 0.744,-6.2202 2.8488,-6.2202 0.732,0 1.331,-0.3385 1.331,-0.7522 0,-1.2663 -8.8169,-0.8301 -10.1496,0.5022 -0.6877,0.6875 -2.5018,1.25 -4.0314,1.25 -2.9474,0 -3.4079,-0.89 -4.139,-8 -0.3288,-3.1977 -0.3738,-3.1279 -0.52,0.809 -0.1556,4.1914 -2.16,5.2418 -2.16,1.132 0,-2.3489 -1.3088,-2.4893 -3.4302,-0.368 -2.1226,2.1227 -4.7497,1.4497 -6.1682,-1.5801 -0.642,-1.3711 -2.3758,-4.9962 -3.8528,-8.0557 -2.6444,-5.4774 -2.6642,-5.6689 -1.2904,-12.4663 0.9867,-4.8822 1.5649,-6.2546 1.9748,-4.6872 0.3785,1.4473 1.3485,2.2163 2.7956,2.2163 1.7405,0 1.9771,-0.288 1.1023,-1.342 -0.6126,-0.7381 -0.8177,-1.6381 -0.4558,-2 0.3619,-0.3619 0.076,-0.658 -0.6359,-0.658 -0.95,0 -1.1662,-1.3287 -0.8134,-5 0.2642,-2.75 0.097,-5 -0.3728,-5 -0.4693,0 -0.8532,1.2 -0.8532,2.6667 0,5.9406 -1.1891,0.965 -1.5134,-6.3327 -0.1915,-4.3087 -0.9941,-11.0549 -1.7836,-14.9915 -0.8295,-4.1364 -1.0763,-7.7241 -0.5845,-8.5 1.055,-1.6646 1.1499,-5.8552 0.1315,-5.8071 -0.4125,0.019 -1.875,0.6786 -3.25,1.4646 -1.375,0.786 -3.5125,1.4451 -4.75,1.4646 -2.0873,0.033 -2.25,-0.3986 -2.25,-5.9646 0,-3.3 -0.3975,-6 -0.8834,-6 -0.4858,0 -1.1189,-0.9006 -1.4067,-2.0014 -0.2879,-1.1007 -0.1154,-1.7492 0.3834,-1.441 0.4987,0.3083 0.9067,-0.8427 0.9067,-2.5576 0,-2.1047 -0.3757,-2.8858 -1.1561,-2.4035 -0.8337,0.5152 -0.9858,-0.3344 -0.5457,-3.0468 0.8691,-5.3558 3.2345,-8.5497 6.3318,-8.5497 1.8309,0 2.4239,-0.4171 2.0347,-1.4313 -0.3021,-0.7873 -0.7421,-5.1748 -0.9779,-9.75 -0.2358,-4.5757 -0.2359,-6.6312 -3e-4,-4.5687 0.2357,2.0625 0.8526,3.75 1.371,3.75 0.9599,0 1.3273,-1.423 0.9941,-3.8504 -0.102,-0.7427 0.2947,-1.0536 0.8815,-0.6909 0.5868,0.3626 1.0669,0.2196 1.0669,-0.3179 0,-0.5375 0.2731,-1.689 0.607,-2.559 0.3983,-1.038 0.054,-1.5818 -1,-1.5818 -2.933,0 -1.663,-2.9226 2.143,-4.9319 3.2882,-1.7359 3.4541,-1.9852 1.347,-2.0239 l -2.403,-0.044 2.105,-1.8256 c 1.4178,-1.2298 1.9203,-2.5318 1.5393,-3.9888 -0.3111,-1.1897 -0.9334,-1.9358 -1.3829,-1.658 -0.4495,0.2777 -1.0999,0.048 -1.4453,-0.5113 -0.3455,-0.559 -0.1516,-1.0163 0.4309,-1.0163 0.5824,0 1.059,-0.45 1.059,-0.99999 0,-0.55 -1.8,-1.000005 -4,-1.000005 -2.2,0 -4,-0.45 -4,-1 0,-0.55 0.5625,-1.0266 1.25,-1.059 0.6875,-0.033 2.9293,-0.1877 4.9819,-0.3449 2.868,-0.2196 3.8636,0.1294 4.3011,1.508 0.344,1.0837 1.1597,1.567305 2.0605,1.2217 0.82,-0.3147 1.3239,-1.0737 1.1195,-1.6866 -0.3601,-1.0805 5.3319,-3.5937 8.2083,-3.6241 0.7816,-0.01 2.2572,0.7414 3.2789,1.6661 1.7511,1.5847 1.9481,1.5521 3.4325,-0.5672 0.8661,-1.2366 2.2031,-2.0072 2.971,-1.7126 0.8961,0.3439 1.3963,-0.1516 1.3963,-1.3831 0,-1.055399 0.7875,-2.377599 1.75,-2.938199 0.9625,-0.5606 1.2779,-1.033 0.7008,-1.0497 -1.2034,-0.035 -0.6614,-7.0304 0.5447,-7.0304 0.4271,0 1.5151,-1.5562 2.4176,-3.4582 1.0257,-2.1614 2.1541,-3.2614 3.0092,-2.9332 1.3147,0.5045 9.4428,-6.7734 9.7027,-8.6878 0.069,-0.5064 0.2179,-1.2583 0.3315,-1.6708 0.1136,-0.4125 0.573,-2.1 1.0209,-3.75 0.4478,-1.65 1.6486,-4.1945 2.6684,-5.6544 1.0198,-1.4599 1.8615,-3.2599 1.8695,-4 0.012,-1.0559 0.2124,-1.0341 0.9307,0.1012 0.7396,1.1691 1.6961,0.6894 4.9837,-2.5 3.9721,-3.8532 5.3244,-7.4314 2.8203,-7.4621 -0.8164,-0.01 -0.887,-0.2702 -0.2034,-0.75 0.5757,-0.4041 3.1872,-3.5442 5.8034,-6.9781 5.6397,-7.4023 6.9337,-8.2025 13.8664,-8.5745 3.0704,-0.1648 5.1973,-0.7306 5.0776,-1.3508 -0.2835,-1.469 6.1955,-4.0706 12.0678,-4.8457 2.674,-0.3529 6.949,-1.8824 9.5,-3.3989 2.551,-1.5164 6.5611,-3.3568 8.9112,-4.0896 3.0608,-0.9544 4.4397,-1.9966004 4.8606,-3.6735004 0.6923,-2.7582 3.5281,-3.6712 9.8431,-3.1689 4.9654,0.3949 5.7386,-0.263 2.2733,-1.9342 -2.1223,-1.0235001 -2.0655,-1.0890001 1,-1.1528001 1.8053,-0.038 3.25,0.439 3.25,1.0721001 0,3.5415 7.657,5.066 10.599,2.1102 2.232,-2.2425 10.279,-4.15340007 17.7184,-4.20760007 5.5443,-0.04 5.7905,0.063 5.2447,2.20760007 -0.5672,2.2285 -0.5621,2.2296 0.5325,0.1187 1.0093,-1.94650007 1.942,-2.13510007 10.7553,-2.17430007 9.4037,-0.042 9.5445,-0.01 5.5153,1.28449997 -5.6856,1.8253001 -8.368,3.3693001 -8.3499,4.8063001 0.011,0.8459 0.2384,0.882 0.75,0.1188 1.494,-2.2289 10.1867,-3.5923 14.2347,-2.2328 l 2.5,0.8397 -2.3166,-1.9697 -2.3166,-1.9697001 2.4884,-0.6245 c 2.4432,-0.61319997 10.5021,-0.16349997 19.8948,1.1103 3.1798,0.4312001 4.75,0.2802001 4.75,-0.4566 0,-1.23369997 6.5845,-1.43349997 14.7855,-0.4485 3.2141,0.386 5.1314,1.0684001 4.8924,1.7413001 -0.2163,0.6086 -1.1632,1.0388 -2.1043,0.9562 -1.1298,-0.099 -1.5179,0.3531 -1.1424,1.3317 0.3129,0.8152 0.5688,1.8954 0.5688,2.4004 0,0.505 0.9,0.018 2,-1.0818 1.1,-1.1 2,-2.45 2,-3 0,-0.55 0.45,-1 1,-1 0.55,0 1,0.9 1,2 0,1.4667 0.6667,2 2.5,2 1.375,0 2.5,0.4384 2.5,0.9743 0,1.206 5.76,4.2724004 7.153,3.8080004 1.4295,-0.4765 -4.0747,-5.7754004 -6.0394,-5.8141004 -2.0894,-0.041 -5.1136,-2.3463 -5.1136,-3.8977001 0,-0.91529997 5.0898,-1.14519997 20.9465,-0.94649997 17.0547,0.2138 20.6162,0.49399997 19.1686,1.50790007 -2.5969,1.8189 -6.8023,2.6833 -7.507,1.543 -0.3356,-0.5429 -1.5046,-0.7532 -2.5979,-0.4673 -1.0932,0.2859 -1.7612,0.8862 -1.4844,1.3341 0.6481,1.0487 -3.1868,2.2859 -4.5239,1.4595 -0.5588,-0.3454 -1.286,0.076 -1.616,0.9354 -0.4197,1.0939 -1.9368,1.5634 -5.0519,1.5634 -2.7134,0 -4.2107,0.3905 -3.834,1 0.3399,0.5500004 1.8065,1.0000004 3.259,1.0000004 2.0541,0 2.3743,0.2667 1.441,1.2 -1.856,1.856 -1.4777,2.5744 2.3,4.367 2.0708,0.9827 3.5,2.3891 13.52031,12.257408 10.02031,9.868308 6.76661,6.643451 10.798,10.67516 1.7748,1.77493 2.37182,0.798775 4.11283,1.79252 1.4887,0.849725 9.05987,6.760086 9.71098,7.970046 1.34837,2.50565 -0.94824,6.958349 0,9.680666 0.17746,0.509472 0.95531,0.639187 1.14445,1.14444 1.57217,4.199829 -1.42715,10.813392 2.2031,14.444372 0.73043,0.730579 3.41114,0.321738 4.61241,1.531101 1.36683,1.376043 2.62873,4.583706 4.7915,5.683436 2.84112,1.444651 6.34698,1.975017 9.2427,4.153591 2.23344,1.680306 1.82127,2.730772 4.52384,3.406395 1.03206,0.258006 10.0889,3.601509 10.90097,5.225247 0.53613,1.072009 0.01,8.574262 0,8.593362 -0.85445,1.70532 -3.97459,1.6238 -4.57777,3.43332 -1.25034,3.75103 -2.03826,9.30788 -0.074,13.18929 0.94309,1.8636 11.67561,0.4261 15.18871,6.06056 2.2109,3.54594 -1.30387,11.35205 0,15.38593 1.34029,4.1466 7.01758,6.36208 9.06304,10.54053 1.4791,3.02151 2.21021,29.52343 1.14444,32.7827 -1.9468,5.95357 -9.55239,8.99429 -12.39271,14.44259 -0.0181,0.0347 -2.26563,2.24872 -2.27463,2.27442 -2.03201,6.09604 2.58812,9.1927 0.98127,13.2889 -0.62419,1.5912 -6.63369,4.92703 -7.7518,7.75193 -0.86226,2.17853 1.1666,5.89896 0,7.89423 -3.91052,6.6883 2.31703,-6.88103 -1.07067,3.28314 -0.34995,1.04994 -2.25797,1.57037 -2.61747,2.61753 -1.1262,3.28046 1.53544,8.42228 0,11.49316 -1.87526,3.75053 -7.48302,5.0393 -9.65258,8.90197 -0.91858,1.63542 -1.30787,4.65717 -2.75213,6.16904 -1.31398,1.37549 -5.14267,4.38212 -6.23156,6.75083 -0.5961,1.29671 0.43013,3.03198 -1.74265,3.72034 -5.14947,1.63141 -1.98421,1.65437 -3.86053,2.62486 -1.07093,0.55392 -2.96475,-0.53801 -4.0441,0 -2.38653,1.18959 -5.90633,8.26544 -5.90633,10.84683 0,3.57255 2.10682,1.61385 2.98767,4.2744 0.72337,2.18487 0.0825,6.50489 1.06398,8.4677 0.46664,0.93327 1.69901,1.30564 2.21344,2.21344 2.27019,4.00616 3.15579,9.8949 3.50299,19.78466 0.3472,9.88975 -6.4421,5.19785 -9.4557,2.34795 -5.0392,-4.7653 -5.6129,-5.7728 -7.142,-12.544 -0.9145,-4.0494 -1.6627,-8.2073 -1.6627,-9.2399 0,-1.0325 -0.8969,-2.7742 -1.9931,-3.8704 -1.4096,-1.4096 -1.9466,-3.1786 -1.8343,-6.0433 0.087,-2.2277 0.5341,-4.2824 0.993,-4.566 1.6794,-1.0379 0.7659,-3.3219 -1.8369,-4.593 -4.0304,-1.9683 -7.2343,-13.5089 -4.2605,-15.3467 0.5862,-0.3631 0.8513,-1.2254 0.5862,-1.9161 -0.2651,-0.6908 0.319,-2.4768 1.2979,-3.9691 1.4288,-2.178 1.8987,-2.4035 2.3824,-1.1429 0.3314,0.8636 1.2156,1.5702 1.9649,1.5702 1.2924,0 2.0827,1.2258 4.5129,7 0.9736,2.3134 1.0568,2.1889 1.1198,-1.6667 0.04,-2.4527 -0.4465,-4.3753 -1.1823,-4.6738 -0.9245,-0.3752 -0.9516,-0.7224 -0.104,-1.3334 0.6302,-0.4543 1.1762,-3.4136 1.2122,-6.5761 0.052,-4.5294 -0.2592,-5.75 -1.4674,-5.75 -1.3442,0 -1.3341,-0.1996 0.082,-1.6161 2.071,-2.0709 1.432,-3.9064 -1.3244,-3.8045 -2.2488,0.0831 -2.8594,-1.0222 -1.1488,-2.0794 1.7051,-1.0538 1.1011,-4.3755 -1,-5.5 -2.5078,-1.3422 -2.8981,-8.7822 -0.5,-9.5314 0.825,-0.2577 2.1978,-0.6882 3.0506,-0.9566 1.2806,-0.4031 1.3242,-0.7342 0.25,-1.9017 -1.112,-1.2086 -1.3475,-1.2103 -1.6239,-0.012 -0.6564,2.8454 -3.3129,0.9208 -4.6217,-3.3483 -0.4989,-1.6276 -0.282,-2.25 0.784,-2.25 0.9818,0 1.2991,-0.6682 0.9508,-2 -0.626,-2.3939 -1.8481,-2.5933 -2.6757,-0.4367 -0.33,0.8599 -0.9717,1.3337 -1.4261,1.0528 -0.4539,-0.2808 -0.6393,0.7624 -0.4109,2.3182 0.447,3.0458 -1.0062,4.6732 -3.0271,3.39 -1.3279,-0.8432 -1.8823,-1.0007 -4.2221,-1.1993 -1.1216,-0.0952 -1.4244,-1.3752 -1.2715,-5.375 0.3301,-8.6355 -0.5708,-15.0645 -2.362,-16.8556 -0.9222,-0.9223 -2.0011,-4.0883 -2.3975,-7.0356 -0.3965,-2.9474 -1.1777,-5.924 -1.7361,-6.6147 -0.5585,-0.6907 -1.1183,-3.1657 -1.2442,-5.5 -0.3817,-7.0797 -1.6288,-12.0807 -3.8449,-15.4192 -2.072,-3.1214 -6.2658,-5.0204 -6.4139,-2.9044 -0.1932,2.7595 -0.3366,14.2922 -4.6393,18.4892 -2.5031,-0.0599 -6.7045,-1.6047 -5.4505,0.3624 -0.6838,5.073 -9.6418,7.299 -23.4678,10.1549 v 0 c -10.9913,2.2703 -16.3774,2.0364 -22.4181,-0.9738 -6.8737,-3.4253 -14.9897,-13.9653 -18.1617,-23.5859 -0.9972,-3.0244 -0.9219,-4.3221 0.4497,-7.75 1.6509,-4.1258 2.1522,-4.475 6.0019,-4.1798 1.7582,0.1349 2.032,-0.3439 -4.5571,-5.199 -4.893,-1.5154 0.282,-3.0735 -0.8776,-3.4187 -4.4022,0.6802 0.4047,-1.0582 5.7125,-3.1829 5.3078,-2.1247 12.0131,-4.6359 14.9006,-5.5804 2.8875,-0.9445 5.25,-2.117 5.25,-2.6055 0,-0.489 0.5784,-0.6663 1.2853,-0.395 0.7636,0.293 1.3469,-0.3287 1.4379,-1.5314 0.0839,-1.1135 -0.2961,-2.0246 -0.8444,-2.0246 -0.5482,0 -0.7479,-0.4029 -0.4436,-0.8952 1.3296,-2.1514 -7.4206,-2.9294 -9.6138,-0.8548 -0.7268,0.6875 -2.4464,1.2369 -3.8214,1.2209 -1.375,-0.016 -4.75,0.7834 -7.5,1.7765 -2.75,0.9931 -11.87596,3.84344 -14.27243,9.83122 -2.39647,5.98778 -4.98211,9.07434 -4.98211,9.07434 -2.90026,0.17494 -7.22516,0.84704 -19.19936,4.51564 -4.5715,5.1428 0.669,10.9496 -0.67721,12.29708 -0.5427,0.54379 -0.36889,-0.11328 -0.36889,-0.70108 0,-1.0821 -5.1373,-3.2645 -7.6844,-3.2645 -1.0782,0 -1.1472,0.4462 -0.3108,2.009 0.8037,1.5016 1.6965,1.8531 3.5352,1.3916 2.0139,-0.5055 2.46,-0.2458 2.46,1.432 0,1.1271 -0.4619,2.3348 -1.0265,2.6838 -1.1956,0.7389 -0.9143,3.4789 0.5265,5.1286 0.55,0.63 1.3375,0.9407 1.75,0.691 0.4125,-0.2497 0.75,0.0491 0.75,0.664 0,0.6149 0.45,0.8399 1,0.5 2.2821,-1.4104 0.9986,9.547 -1.8475,15.7719 -4.4585,9.7518 -11.685,14.3897 -26.9905,17.3222 h 3e-4 c -8.7362,1.6737 -16.6489,1.6932 -20.3497,0.05 -2.44,-1.0834 -9.8123,-9.5243 -9.8123,-11.2346 0,-0.3906 -1.1179,-3.0051 -2.4841,-5.8099 -1.3663,-2.8049 -2.7726,-6.5622 -3.125,-8.3497 -0.5531,-2.8047 -0.3644,-3.25 1.3771,-3.25 2.1688,0 3.2287,1.6619 2.4637,3.8631 -0.4,1.1509 -0.619,1.1509 -1.4065,0 -0.6982,-1.0205 -0.8472,-0.8604 -0.5927,0.6369 0.2208,1.2984 0.9773,1.8886 2.1568,1.6825 0.9991,-0.1746 2.496,-0.0568 3.3263,0.2618 1.2171,0.4671 1.2704,0.8677 0.2746,2.0675 -1.0444,1.2585 -0.7917,1.4905 1.6374,1.5035 1.9677,0.0105 2.4497,0.2833 1.5303,0.866 -1.1047,0.6998 -1.1135,1.2176 -0.05,2.9205 0.7109,1.1383 2.0733,2.2739 3.0275,2.5234 2.0346,0.5321 6.1503,-2.0532 5.3445,-3.3572 -0.6374,-1.0312 3.0748,-5.0795 3.9006,-4.2538 0.3012,0.3012 2.0262,-0.1371 3.8333,-0.974 1.8072,-0.8369 6.6608,-2.9853 10.7858,-4.7742 7.5617,-3.2793 14,-7.4572 14,-9.0847 0,-1.5187 -4.416,-0.9634 -8.3701,1.0525 -5.575,2.8423 -11.7204,4.7277 -15.1299,4.6417 -3.5961,-0.0905 -3.6202,-1.9432 -0.031,-2.3919 2.6159,-0.3271 3.5967,-2.1836 1.1535,-2.1836 -0.7576,0 -1.8955,-0.6242 -2.5287,-1.3871 -0.9229,-1.112 -0.4141,-1.7695 2.5663,-3.3162 4.7288,-2.454 5.1209,-3.739 1.804,-5.9123 -2.1944,-1.4378 -3.0074,-1.5262 -4.6428,-0.5048 -1.7122,1.0693 -2.3203,0.8739 -4.4573,-1.432 -1.3611,-1.4686 -2.3373,-2.7844 -2.1693,-2.9241 0.4811,-0.4 10.0004,-3.2782 13.1804,-3.9852 5.5121,-1.2254 20.0093,-0.7353 20.375,-1.4275 13.3183,-3.1522 8.0146,-2.7268 -2.1537,-2.3191 -4.9463,0.1594 -11.9213,0.6353 -16.5963,1.1504 -4.675,0.515 -11.8211,1.1675 -15.8802,1.4499 l -7.3802,0.5135 3.3802,-2.4173 c 1.8591,-1.3296 3.9237,-2.8833 4.588,-3.4528 1.7632,-1.5115 6.8116,-1.266 11.0743,0.5385 3.0288,1.2823 6.4052,1.477 26.8476,-0.6365 4.6514,-0.9131 -1.4038,-1.8673 6.4205,-1.7773 1.5927,-6.2852 1.4203,-6.589 -2.4046,-8.0444 -2.8538,-1.0858 -4.3042,-1.1855 -5.5877,-0.384 -1.2109,0.7562 -4.2693,0.7918 -10.1457,0.1179 -10.6863,-1.2256 -10.3044,-1.2179 -17.4122,-0.348 -3.3,0.4039 -6.9873,1.3501 -8.1938,2.1026 -2.5395,1.5839 -8.3062,0.8155 -8.3062,-1.1068 0,-0.6889 -0.6607,-1.8008 -1.4682,-2.471 -1.2745,-1.0578 -1.1426,-1.861 1,-6.0892 2.8343,-5.5933 3.0993,-7.3934 0.9682,-6.5756 -1.0203,0.3915 -1.5,-0.054 -1.5,-1.393 0,-1.0827 -0.6269,-1.9686 -1.393,-1.9686 -2.0424,0 -2.7596,-2.7656 -1.3408,-5.1702 0.9492,-1.6087 0.9584,-2.1912 0.04,-2.5251 -0.6563,-0.2387 -0.9749,-1.0045 -0.7073,-1.7018 0.2675,-0.6973 0.0462,-3.2272 -0.4919,-5.6221 -0.759,-3.3783 -0.6754,-4.5927 0.373,-5.4176 0.7432,-0.5848 1.5063,-1.96319 1.6959,-3.063195 0.2049,-1.1896 1.2769,-2.1327 2.6455,-2.3276 2.3539,-0.3351 2.5706,-0.6602 3.6141,-5.422399 0.5329,-2.4317 0.311,-2.75 -1.9165,-2.75 -1.6042,0 -2.519,-0.5606 -2.519,-1.5438 0,-0.9056 0.7086,-1.4224 1.7137,-1.25 1.0705,0.1835 1.8359,-0.4569 2.039,-1.7062 0.8475,-5.2127 1.3954,-6.5 2.7663,-6.5 0.8146,0 1.481,-0.6568 1.481,-1.4595 0,-2.2009 4.8336,-6.2353 9.4236,-7.8656 2.242,-0.7964 6.5514,-2.4612 9.5764,-3.6995 3.025,-1.2383 6.7231,-2.2082 8.2181,-2.1562 1.495,0.0524 3.97,-0.5577 5.5,-1.3558 1.53,-0.7981 3.3585,-1.4572 4.0633,-1.4572 0.7047,-0.0034 1.5404,-0.6812 1.857,-1.5062 0.3166,-0.825 1.1473,-1.5 1.8461,-1.5 0.6989,0 1.8631,-0.7139 2.5873,-1.5865 0.9007,-1.0852 2.5192,-1.4719 5.1224,-1.2236 2.0932,0.1996 3.8058,0.1234 3.8058,-0.1694 0,-2.6822 17.594,-3.4848 23.5,-1.0719 1.65,0.6742 5.25,1.3088 8,1.4104 4.92,0.1818 11.5,2.4047 11.5,3.8851 0,0.4157 0.6027,0.7559 1.3393,0.7559 0.7366,0 2.7209,1.4625 4.4095,3.25 5.8633,6.2068 13.7642,13.0259 16.2507,14.0257 10.0038,4.0223 12.0005,5.9237 12.0005,11.4277 0,2.6208 0.4778,3.3784 2.4411,3.8712 1.6551,0.4154 2.6473,1.551199 3.0813,3.527299 0.3521,1.6031 1.4962,3.3728 2.5424,3.9328 1.0463,0.5599 1.8153,1.793705 1.7089,2.741695 -0.4452,3.9687 1.4755,11.2236 2.9715,11.2236 1.1985,0 1.4031,0.8578 0.9716,4.0747 -0.4629,3.4509 -0.3533,3.8104 0.7157,2.3485 1.3841,-1.8929 1.9514,-1.3429 2.9588,2.8687 0.4685,1.9587 0.172,3.2876 -0.9937,4.4533 -1.5486,1.5487 -1.614,1.5119 -0.9621,-0.5419 0.5717,-1.8014 0.3099,-2.2033 -1.4355,-2.2033 -1.7545,0 -2.0101,0.4008 -1.4352,2.25 0.3848,1.2375 1.0929,2.4009 1.5736,2.5854 0.4807,0.1845 0.5724,0.8234 0.2038,1.4199 -0.4238,0.6857 -0.07,0.8542 0.9617,0.4583 0.8976,-0.3444 1.898,-0.1959 2.2231,0.3301 0.3602,0.5828 -3.1224,0.9563 -8.9169,0.9563 -14.6704,0 -35.6982,4.6505 -51.636,12.6009 -0.3104,2.483 -0.8094,3.419 0.8776,3.4186 8.0706,-7.2797 23.8629,-11.0438 36.8986,-11.2011 8.5507,-0.1032 13.2564,1.4132 17.0932,5.5083 l 2.3435,2.5013 -3.9369,-0.3792 c -2.1653,-0.2086 -5.1156,-0.8273 -6.5561,-1.375 -1.6037,-0.6097 -3.7,-0.6519 -5.4066,-0.1087 -1.5331,0.4879 -4.9162,1.1716 -7.518,1.5194 -2.8587,0.382 -4.6393,1.1038 -4.5,1.8239 0.1574,0.8135 -2.0853,1.2852 -7.068,1.4864 -7.9345,0.3205 -8.6893,0.9053 -7.3628,5.7052 0.7552,2.7325 1.223,3.0092 5.2452,3.0992 7.8074,0.1753 9.0461,0.3815 8.4161,1.4008 -0.3399,0.55 -3.7093,1 -7.4875,1 -4.6729,0 -7.334,0.4645 -8.322,1.4524 -0.7988,0.7985 -1.7547,1.15 -2.1243,0.7805 -0.3695,-0.3696 -0.3749,0.1019 -0.012,1.0476 0.5599,1.459 -4e-4,1.7286 -3.6971,1.7816 l -4.357,0.062 4.5,2.083 c 2.475,1.1457 5.5782,2.579 6.8959,3.1851 3.8523,1.7718 20.9624,0.8244 25.0997,-1.3898 0.946,-0.5064 3.4715,-1.0304 5.6122,-1.1645 2.1407,-0.1341 4.4404,-0.94 5.1104,-1.7909 0.7861,-0.9983 1.229,-1.1155 1.25,-0.3303 0.0175,0.6691 1.5918,-0.3434 3.4985,-2.25 1.9066,-1.9067 3.9316,-3.4667 4.5,-3.4667 0.5683,0 1.0333,1.9733 1.0333,4.3852 0,4.7861 -1.9265,11.7308 -1.2072,11.7208 -0.3831,4.8197 -0.3522,4.9908 -1.1863,7.2051 -10.2116,16.9154 -45.3661,12.6371 -52.0218,10.0831 -1.0416,-0.3996 -1.5851,-0.0572 -1.5851,0.9988 0,0.8838 -0.6053,1.607 -1.345,1.607 -1.8541,0 -4.2886,-2.8789 -6.0994,-7.2127 -2.0286,-4.8551 -8.0919,-13.3101 -13.2117,-18.4231 -2.2859,-2.2829 -4.3155,-4.9862 -4.5102,-6.0074 -0.1948,-1.0213 -1.362,-2.0006 -2.5939,-2.1764 -2.9163,-0.416 -2.9082,1.3858 0.01,2.2612 1.7943,0.5382 1.9394,0.815 0.7163,1.3667 -5.5728,2.5135 -6.8653,4.9466 -9.9298,18.6917 -3.5993,16.1438 -4.1583,17.897 -6.1521,19.2935 -2.7091,1.8975 -4.7485,6.3759 -7.1576,10.4199 -5.0595,1.7866 -5.7262,2.3199 -5.7262,3.7866 0,2.1805 -2.5693,2.7714 -3.2611,0.75 -0.4321,-1.2627 3.4939,-7.2088 6.2611,-9.4825 1.0425,-0.8567 -0.025,-0.7778 -3.5,0.2587 -9.7734,2.915 -19.1348,4.5906 -29,5.1909 -5.5,0.3346 -9.325,0.8188 -8.5,1.0761 0.825,0.2573 2.3648,1.1965 3.4219,2.0873 1.5714,1.3242 1.7858,1.346 1.1758,0.1195 -0.4103,-0.825 -0.069,-0.6688 0.7595,0.3472 0.828,1.0159 1.2529,2.5053 0.9442,3.3096 -0.348,0.907 0.1831,1.6571 1.3981,1.9749 2.4387,0.6377 4.6403,8.4392 3.7021,13.1183 -0.5255,2.6209 -0.331,3.25 1.0048,3.25 0.911,0 1.9154,0.675 2.232,1.5 0.3166,0.825 1.436,1.5 2.4876,1.5 1.5689,0 1.7928,-0.4755 1.2472,-2.6492 -0.4679,-1.864 -0.3255,-2.4393 0.481,-1.941 0.6302,0.3895 1.1458,1.4458 1.1458,2.3472 0,1.0073 1.914,-0.4608 4.9661,-3.809 3.9689,-4.3541 4.8448,-4.946 4.3619,-2.948 -0.3322,1.375 -1.3857,3.4 -2.3411,4.5 -2.2666,2.6098 -4.2577,6.5 -3.3268,6.5 0.4017,0 1.9799,-1.197 3.5069,-2.66 1.8402,-1.7631 4.0505,-2.7395 6.5547,-2.8957 2.0781,-0.1296 4.2283,-0.2891 4.7783,-0.3541 0.55,-0.0651 2.9889,-1.9121 5.4197,-4.1043 3.4114,-3.0766 3.9817,-3.9892 2.5,-4.0012 -1.6055,-0.0128 -1.6742,-0.174 -0.4197,-0.9847 2.1264,-1.3742 3,-1.2286 3,0.5 0,0.8333 0.8889,1.5 2,1.5 1.5556,0 2,-0.6667 2,-3 0,-2.7521 -0.2843,-3 -3.441,-3 -1.8925,0 -3.7191,0.45 -4.059,1 -0.3399,0.55 -1.4915,1 -2.559,1 -1.0676,0 -1.941,-0.45 -1.941,-1 0,-0.55 0.8889,-1 1.9752,-1 1.7071,0 1.8429,-0.3482 1,-2.5651 -0.5363,-1.4108 -0.9752,-3.6608 -2.2252,-6.2175 0.7322,-1.2174 1.25,-0.7131 3.8966,-1.6615 2.0721,-1.3813 1.9281,-1.4081 1.9761,-3.004 1.0243,-0.7973 1.9549,-1.5519 2.7383,-1.5519 0.7834,0 1.6959,-0.7074 2.0277,-1.5721 0.8729,-2.2749 5.5662,-1.505 8.845,1.451 2.5911,2.3361 2.9838,2.401 7.5,1.2381 2.6211,-0.6749 5.4407,-1.3534 6.2657,-1.5078 0.825,-0.1544 3.207,-1.0148 5.2934,-1.9121 3.1936,-1.3734 4.933,-1.4662 11,-0.5871 3.9636,0.5743 7.9941,1.1064 8.9566,1.1814 0.9625,0.0754 1.75,0.88 1.75,1.788 0,2.5367 -3.9035,6.9206 -6.1623,6.9206 -1.1094,0 -2.8177,0.9886 -3.7961,2.197 -1.7276,2.1334 -1.7033,2.2748 0.8397,4.8873 1.8252,1.8752 2.9849,2.3948 3.8274,1.7148 0.849,-0.6852 2.3084,0.0924 4.9034,2.6127 2.0321,1.9735 4.2333,3.5882 4.8917,3.5882 0.6584,0 2.2579,1.3842 3.5545,3.076 1.2965,1.6919 3.2248,3.5403 4.285,4.1077 1.7409,0.9317 1.8611,0.7668 1.2413,-1.7025 -0.597,-2.3788 -0.4521,-2.6281 1.1146,-1.9181 0.9904,0.4489 4.3883,0.9958 7.5508,1.2153 3.1625,0.2196 5.75,0.8093 5.75,1.3104 0,0.5012 1.2424,0.9112 2.761,0.9112 1.8504,0 3.5782,0.9894 5.239,3 1.3629,1.65 3.2546,3 4.2038,3 2.2346,0 3.8859,3.1602 4.2386,8.1119 0.297,4.1701 -1.025,6.0707 -2.6197,3.7662 -0.6559,-0.9477 -0.7358,-0.5973 -0.256,1.1219 0.3837,1.375 1.0882,2.65 1.5655,2.8333 1.3838,0.5316 1.0069,4.0247 -6.7565,8.1938 -5.2712,-0.463 -8.2221,-1.8939 -9.3493,-0.07 -0.5911,0.9565 -1.27,0.9824 -2.8991,0.1106 -1.1699,-0.6262 -2.1831,-1.5726 -2.2521,-2.1033 -0.069,-0.5306 -0.181,-1.5211 -0.25,-2.2011 -0.1495,-1.4777 -3.625,-2.3505 -3.625,-0.9104 0,2.2 -3.6893,1.6012 -6.8632,-1.1139 -2.9175,-2.4958 -3.9113,-2.7955 -7.5,-2.2618 -7.4689,1.1106 -14.0634,2.7942 -18.6368,4.7581 -3.1499,1.3526 -7.8793,2.1019 -15.763,2.4976 -12.9532,0.65 -14.9574,1.4788 -12.7355,5.2667 0.8066,1.375 1.7326,3.2165 2.0579,4.0923 0.6223,1.6757 12.322,5.9472 16.2219,5.9222 1.2548,-0.008 2.5404,-0.6895 2.857,-1.5145 0.4953,-1.2907 4.3617,-2.2496 4.3617,-1.0818 0,0.23 0.2626,1.1026 0.5835,1.939 0.4306,1.122 -0.487,1.809 -3.5,2.6203 -2.2459,0.6048 -4.0835,1.5322 -4.0835,2.061 0,2.419 15.4864,-0.0375 22.127,-3.5098 2.6599,-1.3908 5.7069,-2.5287 6.7712,-2.5287 1.0643,0 2.1133,-0.5346 2.3311,-1.188 0.6715,-2.0146 5.5515,2.4012 6.0095,5.438 0.3516,2.3309 0.06,2.75 -1.912,2.75 -1.2798,0 -2.3268,0.4234 -2.3268,0.941 0,1.4471 1.7839,2.2175 2.4899,1.0753 0.3455,-0.559 1.2532,-1.0163 2.0171,-1.0163 1.1251,0 1.1794,0.6012 0.2856,3.165 -0.9782,2.8061 -0.8463,3.3731 1.1628,5 1.2464,1.0092 2.9813,1.835 3.8554,1.835 1.236,0 1.3225,0.2667 0.3892,1.2 -1.4469,1.4468 -1.602,3.1665 -0.2079,2.3049 0.5456,-0.3372 1.7831,-0.1561 2.75,0.4024 1.4224,0.8218 1.9361,0.551 2.6914,-1.4188 0.7535,-1.9649 1.4121,-2.3144 3.4145,-1.8118 h 4e-4 c 2.0615,0.5174 2.3685,0.3299 1.8164,-1.1088 -0.3654,-0.9523 -0.6644,-2.0922 -0.6644,-2.5331 0,-0.4408 -0.9,-1.0369 -2,-1.3246 -2.6058,-0.6814 -2.5898,-2.7102 0.021,-2.7102 1.2051,0 2.4985,-1.0471 3.2028,-2.5928 1.0476,-2.2993 0.9054,-2.8008 -1.2565,-4.4316 -1.3432,-1.0131 -2.0463,-2.2063 -1.5659,-2.6572 0.4796,-0.4501 1.0729,-0.2559 1.3184,0.4316 0.487,1.3637 3.2798,1.7468 3.2798,0.45 0,-1.3845 -2.3295,-3.2 -4.106,-3.2 -1.4628,0 -1.5412,-0.3602 -0.55,-2.5284 0.6358,-1.3906 2.2112,-2.8001 3.501,-3.1323 1.6078,-0.414 1.955,-0.8449 0.7984,-2.5734 -0.6519,-0.3015 -0.3765,0.781 5.5823,0.2203 4.9053,-1.5829 5.3154,-3.1635 5.7322,-2.7387 0.4991,3.3013 4.7531,-1.1723 5.1913,-4.1822 0.1928,-1.3248 0.9848,-2.6178 1.7599,-2.8734 0.9476,-0.3125 1.2128,0.0474 0.8095,1.0985 -0.33,0.8599 0.1157,2.1573 0.9903,2.8832 1.4124,1.1722 1.5343,0.9385 1.09,-2.0891 -0.5832,-3.9735 2.8704,-15.0845 4.6886,-15.0845 1.619,0 4.8433,3.6555 4.1762,4.7347 -0.2925,0.4734 -0.1525,1.4748 0.3113,2.2252 0.6949,1.1244 1.1357,1.072 2.5055,-0.2977 1.4771,-1.4771 3.5388,-2.0382 7.1594,-1.9492 0.6406,0.0158 1.9549,-3.9674 3,-9.0924 1.1553,-5.6653 1.9798,-8.0788 2.1763,-6.3706 0.3821,3.3211 1.8546,3.6108 2.5407,0.5 0.273,-1.2375 0.2645,2.025 -0.019,7.25 -0.3754,6.9236 -0.9351,9.8283 -2.0636,10.7104 -1.1385,0.8899 -1.4021,2.3023 -0.9954,5.3339 0.4395,3.2774 0.1409,4.5356 -1.4555,6.1321 -1.2876,1.2876 -1.8138,2.7829 -1.4659,4.166 0.5111,2.0319 0.4629,2.0508 -0.8281,0.325 -1.3168,-1.7603 -1.4152,-1.7499 -2.493,0.264 -0.6408,1.1975 -0.8406,3.5968 -0.4658,5.5948 0.5546,2.956 0.4063,3.4023 -0.9573,2.879 -1.2795,-0.491 -1.6136,0.0494 -1.6136,2.6103 0,2.7572 -0.2193,3.0474 -1.5,1.9845 -1.5599,-1.292 -2.0072,-0.4614 -1.5499,2.8578 0.1029,0.7468 -0.7702,2.0283 -1.9402,2.8478 -1.4511,1.0164 -2.0292,2.3332 -1.8186,4.1422 0.2703,2.3219 -0.083,2.6903 -2.8366,2.9577 -2.9497,0.2866 -3.1249,0.5255 -2.8166,3.8419 0.3613,3.8881 -0.3296,6.5995 -1.4978,5.8775 -0.4126,-0.255 -0.7032,0.8001 -0.6452,2.3447 0.081,2.157 0.5108,2.7027 1.8549,2.3528 1.3898,-0.3619 1.75,0.1858 1.75,2.661 0,1.7141 0.45,3.1166 1,3.1166 1.0631,0 1.5038,-3.4053 1.1341,-8.7685 -0.2123,-3.081 2.4582,-9.2315 4.0082,-9.2315 0.3911,0 0.9045,-0.5625 1.1409,-1.25 0.2364,-0.6875 0.2961,-0.4036 0.1327,0.6308 -0.1634,1.0345 0.3512,2.5291 1.1435,3.3215 0.7924,0.7923 1.4406,2.9443 1.4406,4.7823 0,3.305 0.033,3.3291 3.029,2.1983 3.4652,-1.3079 3.5931,-3.6839 0.2767,-5.1435 -1.2004,-0.5284 -2.3931,-1.7659 -2.6505,-2.75 -0.5891,-2.2528 0.2965,-5.7894 1.4496,-5.7894 0.4794,0 1.1594,-1.8 1.5112,-4 0.3518,-2.2 1.0679,-4 1.5913,-4 0.5234,0 0.6962,1.4624 0.384,3.25 -0.4399,2.5179 -0.1987,2.2364 1.0704,-1.25 1.8065,-4.9623 3.3446,-6.5252 4.6226,-4.6972 0.4695,0.6715 0.5439,-0.2848 0.1695,-2.1779 -0.4653,-2.3523 -0.3322,-3.1678 0.4393,-2.691 0.6088,0.3763 1.1429,0.0951 1.1859,-0.6249 0.043,-0.7199 0.5409,-0.0416 1.1055,1.5075 0.6128,1.6814 1.5552,2.6136 2.3383,2.3131 1.9291,-0.7402 2.4689,1.6614 0.866,3.8534 -0.7639,1.0446 -1.3888,3.3561 -1.3888,5.1367 0,1.7806 -0.7554,3.9929 -1.6787,4.9162 -1.3361,1.336 -1.4704,2.2307 -0.6581,4.3827 0.6314,1.6729 0.6786,3.6284 0.1237,5.1284 -0.4931,1.3335 -0.6891,3.219 -0.4351,4.1901 0.2539,0.9711 0.054,1.5135 -0.4451,1.2053 -0.4987,-0.3083 -0.9787,-2.2214 -1.0667,-4.2514 l -0.1601,-3.691 -0.4047,3.269 c -0.2226,1.7979 -0.8256,3.0089 -1.34,2.691 -1.3852,-0.8562 -1.1346,-6.2221 0.3148,-6.7398 0.6875,-0.2455 0.9078,-0.8127 0.4897,-1.2603 -1.1351,-1.215 -3.7399,2.7693 -3.1317,4.7901 0.2897,0.9625 0.082,1.75 -0.4612,1.75 -0.5433,0 -1.3019,1.4296 -1.6857,3.1769 -0.5299,2.413 -0.2844,3.4791 1.0212,4.4338 1.6072,1.1752 1.5824,1.4035 -0.3817,3.5117 -1.1553,1.2401 -2.0953,3.1824 -2.0853,4.3162 0.013,1.6973 0.1865,1.7965 0.9847,0.5614 0.7839,-1.213 0.9727,-1.0694 0.9847,0.75 0.011,1.6098 -0.5706,2.25 -2.0437,2.25 -1.1325,0 -1.7809,0.45 -1.441,1 0.3399,0.55 1.7165,1 3.059,1 2.6872,0 3.1518,1.8034 1.3377,5.1929 -0.8416,1.5727 -0.7917,2.254 0.2109,2.8736 0.9516,0.5881 -0.5781,2.5529 -5.5453,7.1228 -3.7727,3.4709 -8.0301,7.0905 -9.4609,8.0435"
       id="path30244"
       sodipodi:nodetypes="csssssssccsssssssccscsssscscsssssssscscsssssssssscccscssccsscssscsscscsscccsccsssscscccccscsscscccscssccsssssscsssscsscssccccscccssssccsscsssssscssssssscssssssssssssssssscssssssscssssssssssssssssssssscsscsssssscscscsssssssssssccsssssscssccssssssccsssscscsssccccsssssccssscccssscssscsscscsccssssscssssssssccccsccscccsscsssssssssccssccssscssssscscsssssssssscsssccsssssssssssssccsscssscscscssccsccsccssccssccsssssscscsscssccsssscccssssscscccssscscsssssssssccccssssssscsscsssscsssssssssssccscscsscscscssscssssssssssssssscssssscssssssssscccssssssssssssscscssssssscsssccssssssssscssscsssccsssssssssscscscssscssssscscssssssc" />
    <path
       style="fill:none;stroke:#000000;stroke-width:1px;stroke-linecap:butt;stroke-linejoin:miter;stroke-opacity:1"
       d="m 521.52066,353.79576 c -2.9539,1.9677 1.92936,1.81395 4.08686,4.25405"
       id="path30240" />
  </g>
</svg>
